<svg width="43" height="49" viewBox="0 0 43 49" fill="none" xmlns="http://www.w3.org/2000/svg">
<path d="M0.74604 0C0.297529 0 -0.0366149 0.367024 0.00322313 0.815492L3.78412 43.4016C3.82396 43.8501 4.20995 44.3157 4.64226 44.4362L20.6865 48.9096C21.1187 49.0301 21.8258 49.0301 22.2581 48.9099L38.3511 44.4291C38.7833 44.3087 39.1698 43.8432 39.2096 43.3948L42.9967 0.815492C43.0369 0.367024 42.7023 0 42.2538 0H0.74604ZM34.9448 9.76695C34.909 10.167 34.8473 10.8615 34.8074 11.3101L34.7079 12.4274C34.6677 12.8758 34.6106 13.5171 34.5805 13.8524C34.5505 14.1877 34.522 14.4621 34.5168 14.4621C34.5117 14.4621 34.1405 14.4621 33.6921 14.4621H22.3154C21.8669 14.4621 21.4962 14.4621 21.4914 14.4621C21.4865 14.4621 21.1155 14.4621 20.667 14.4621H14.6752C14.2267 14.4621 13.8926 14.8291 13.9324 15.2776L14.2819 19.2005C14.3217 19.6488 14.7215 20.016 15.1699 20.016H20.667C21.1156 20.016 21.4865 20.016 21.4914 20.016C21.4964 20.016 21.8671 20.016 22.3155 20.016H31.7643C32.2128 20.016 32.9069 20.016 33.3066 20.016C33.706 20.016 34.0034 20.3434 33.9672 20.7434C33.9308 21.1434 33.8687 21.8382 33.8289 22.2865L32.7052 34.9338C32.6651 35.3823 32.6144 35.9553 32.5925 36.2072C32.5702 36.4589 32.1985 36.7634 31.7663 36.8837L22.2858 39.5234C21.8536 39.6437 21.4946 39.7432 21.4878 39.7447C21.4812 39.7462 21.1222 39.6487 20.6898 39.5284L11.1992 36.8839C10.767 36.7635 10.3808 36.298 10.3411 35.8495L9.73018 28.9641C9.69034 28.5155 10.0249 28.1485 10.4734 28.1485H11.3395C11.788 28.1485 12.5219 28.1485 12.9703 28.1485H14.2619C14.7104 28.1485 15.1097 28.5155 15.1499 28.9641L15.3895 31.6595C15.4293 32.108 15.816 32.571 16.249 32.6884L20.6883 33.8922C21.1211 34.0097 21.477 34.1058 21.479 34.1058C21.481 34.1058 21.8366 34.0095 22.2696 33.8921L26.7169 32.6853C27.1497 32.5679 27.5367 32.1048 27.5769 31.6564L28.0591 26.2561C28.0992 25.8076 27.7651 25.4405 27.3166 25.4405H22.3155C21.867 25.4405 21.4963 25.4405 21.4914 25.4405C21.4866 25.4405 21.1156 25.4405 20.667 25.4405H10.2316C9.78308 25.4405 9.38374 25.0734 9.3439 24.6251L8.16058 11.3102C8.12074 10.8616 8.05899 10.1673 8.02325 9.76705C7.98789 9.36701 8.32556 9.0396 8.77407 9.0396H20.667C21.1156 9.0396 21.4865 9.0396 21.4914 9.0396C21.4964 9.0396 21.8671 9.0396 22.3155 9.0396H34.1941C34.6425 9.03941 34.9803 9.36672 34.9448 9.76695Z" fill="#DD512A"/>
</svg>
