<svg width="39" height="44" viewBox="0 0 39 44" fill="none" xmlns="http://www.w3.org/2000/svg">
<path d="M36.5582 21.2068C36.5582 18.9927 34.7633 17.1978 32.5491 17.1978C32.4067 17.1978 32.2662 17.2054 32.1277 17.2199L37.6342 0.979187H14.2335L19.7323 17.2058C19.6517 17.2009 19.5706 17.1978 19.4887 17.1978C17.2746 17.1978 15.4796 18.9927 15.4796 21.2068C15.4796 22.9966 16.6525 24.5118 18.2713 25.0273C17.4163 26.5084 16.3404 27.8423 15.119 28.9947C13.458 30.5617 11.5571 31.7498 9.50106 32.482C7.05327 31.2245 5.89728 28.4279 6.94037 25.9758C7.05807 25.6989 7.1784 25.4183 7.29326 25.1388C9.0667 24.7249 10.3881 23.1352 10.3881 21.2356C10.3881 19.0215 8.59318 17.2266 6.37893 17.2266C4.16476 17.2266 2.36978 19.0215 2.36978 21.2356C2.36978 22.5934 3.0454 23.7927 4.07801 24.518C3.08574 26.7773 1.62709 29.1417 1.17267 31.8822C0.62806 35.1665 1.1709 38.6526 4.01143 40.6214C10.6268 45.2064 17.8077 37.779 25.379 35.912C28.123 35.2353 31.135 35.3444 33.5525 33.9442C35.368 32.8927 36.5648 31.1502 36.9044 29.1938C37.24 27.2612 36.7508 25.3369 35.6258 23.7766C36.2077 23.0808 36.5582 22.1849 36.5582 21.2068Z" fill="#99425B"/>
<path d="M35.9398 29.0263C35.6448 30.7247 34.5959 32.2083 33.0617 33.0969C31.6317 33.9252 29.918 34.1724 28.1036 34.434C27.1316 34.5742 26.1265 34.7192 25.1446 34.9613C22.5484 35.6015 20.0337 36.8506 17.6019 38.0585C12.7352 40.4758 8.53226 42.5632 4.56924 39.8166C1.66634 37.8047 1.80038 34.0822 2.13858 32.0424C2.45201 30.1525 3.29937 28.412 4.11883 26.7288C4.26041 26.4378 4.39916 26.1522 4.53418 25.869C4.94034 26.0312 5.37234 26.142 5.82265 26.1923C4.98851 28.9452 6.30028 31.9385 9.05366 33.353L9.43044 33.5465L9.82955 33.4045C12.0062 32.6293 14.0119 31.3853 15.7909 29.7069C16.9408 28.622 17.9296 27.4217 18.7422 26.1392C18.9858 26.1759 19.235 26.1952 19.4887 26.1952C22.0157 26.1952 24.1084 24.3061 24.4322 21.8661C25.4665 21.8282 26.5652 21.8279 27.6056 21.8657C27.9292 24.3059 30.022 26.1952 32.5491 26.1952C33.6057 26.1952 34.5858 25.8641 35.3932 25.3016C35.9538 26.449 36.163 27.7401 35.9398 29.0263ZM6.37891 18.2057C8.04974 18.2057 9.4089 19.565 9.4089 21.2357C9.4089 21.8358 9.23285 22.3954 8.93049 22.8667C8.42671 23.6522 7.57083 24.1906 6.58708 24.2578C6.51824 24.2625 6.44892 24.2657 6.37891 24.2657C6.00663 24.2657 5.64993 24.1978 5.32015 24.0745C4.65305 23.8248 4.09719 23.3462 3.74753 22.735C3.49442 22.2925 3.34892 21.7809 3.34892 21.2357C3.34892 19.565 4.70818 18.2057 6.37891 18.2057ZM16.4587 21.2069C16.4587 19.689 17.5808 18.4285 19.039 18.2105C19.1858 18.1885 19.336 18.1769 19.4887 18.1769C20.46 18.1769 21.3248 18.6371 21.8795 19.3502C22.0174 19.5273 22.1369 19.7195 22.2332 19.9247C22.416 20.3144 22.5187 20.7488 22.5187 21.2069C22.5187 21.4492 22.4893 21.6847 22.4354 21.9106C22.1401 23.1467 21.086 24.0915 19.7944 24.2216C19.6939 24.2316 19.5919 24.2369 19.4887 24.2369C18.8838 24.2369 18.3202 24.058 17.8466 23.7514C17.0123 23.211 16.4587 22.2726 16.4587 21.2069ZM29.1048 17.6039C28.4557 18.225 27.973 19.0185 27.7326 19.9108C26.6106 19.8687 25.4208 19.8687 24.3053 19.9108C24.049 18.9598 23.5175 18.1207 22.8027 17.4834L25.9379 11.1437L29.1048 17.6039ZM15.5992 1.95843H36.2683L31.3865 16.3565C31.1749 16.4073 30.9685 16.4713 30.7682 16.5481L25.9456 6.71036L21.1095 16.4894C20.9004 16.4174 20.685 16.3594 20.4645 16.3155L15.5992 1.95843ZM35.579 21.2069C35.579 21.5108 35.5336 21.804 35.4501 22.0809C35.2511 22.7397 34.8336 23.3042 34.2823 23.6902C33.7907 24.0342 33.1932 24.2369 32.5491 24.2369C31.15 24.2369 29.9699 23.2835 29.6229 21.9924C29.5556 21.7418 29.5191 21.4786 29.5191 21.2069C29.5191 20.7928 29.6028 20.3979 29.7539 20.038C29.8317 19.8526 29.9288 19.6773 30.0404 19.5126C30.5857 18.7078 31.5059 18.1769 32.5491 18.1769C32.6447 18.1769 32.7391 18.1819 32.8325 18.1907C34.3709 18.334 35.579 19.6318 35.579 21.2069ZM37.5374 21.2069C37.5374 18.7716 35.7827 16.7396 33.4716 16.3055L39 0.00012207H12.8679L18.4047 16.3387C16.1738 16.8351 14.5004 18.8287 14.5004 21.2069C14.5004 22.9927 15.4442 24.5614 16.8586 25.4429C16.1783 26.4565 15.3715 27.4103 14.447 28.2825C12.9808 29.6658 11.3473 30.7147 9.58632 31.4049C7.81259 30.2907 7.06275 28.1896 7.84147 26.359L7.90247 26.2156C7.94066 26.126 7.97885 26.0362 8.01694 25.9464C9.96516 25.2669 11.3672 23.4126 11.3672 21.2357C11.3672 18.4851 9.12945 16.2474 6.37891 16.2474C3.62837 16.2474 1.39061 18.4851 1.39061 21.2357C1.39061 22.6241 1.96126 23.8813 2.87971 24.7865C2.71325 25.1413 2.53798 25.5021 2.35811 25.8715C1.51839 27.5963 0.56665 29.5512 0.206713 31.722C-0.508167 36.0332 0.644982 39.4795 3.45369 41.4262C5.1581 42.6074 6.88885 43.0718 8.63067 43.0718C11.9104 43.0718 15.2281 41.4241 18.473 39.8123C20.81 38.6516 23.2265 37.4513 25.6135 36.8626C26.5016 36.6436 27.4155 36.5118 28.3831 36.3723C30.3018 36.0955 32.2859 35.8094 34.0432 34.7915C36.0804 33.6115 37.4749 31.6323 37.8692 29.3613C38.2077 27.4117 37.8004 25.459 36.8068 23.8031C37.2699 23.0463 37.5374 22.1573 37.5374 21.2069Z" fill="white"/>
</svg>
