<svg width="45" height="45" viewBox="0 0 45 45" fill="none" xmlns="http://www.w3.org/2000/svg">
<path d="M35.5211 1H9.47887C4.79612 1 1 4.79612 1 9.47887V35.5211C1 40.2039 4.79612 44 9.47887 44H35.5211C40.2039 44 44 40.2039 44 35.5211V9.47887C44 4.79612 40.2039 1 35.5211 1Z" fill="white" stroke="#013247" stroke-width="1.64384"/>
<path d="M34.1093 30.5842C32.6428 30.5444 31.5227 30.6807 30.5651 31.0846C30.293 31.1994 29.859 31.2024 29.8146 31.5434C29.9642 31.7002 29.9874 31.9343 30.1063 32.1271C30.3349 32.4971 30.721 32.9929 31.0654 33.253C31.4417 33.537 31.8296 33.8409 32.2331 34.0869C32.9507 34.5245 33.7518 34.7744 34.4429 35.2128C34.8501 35.4712 35.2547 35.7966 35.652 36.0883C35.8484 36.2324 35.9804 36.4566 36.2357 36.5469C36.2357 36.5332 36.2357 36.5192 36.2357 36.5053C36.1015 36.3346 36.067 36.0998 35.9438 35.9215C35.7633 35.7409 35.5825 35.5602 35.4018 35.3794C34.8718 34.6759 34.199 34.0581 33.4838 33.5448C32.9135 33.1354 31.6369 32.5824 31.399 31.9187C31.3851 31.9047 31.3713 31.8908 31.3572 31.8769C31.7616 31.8314 32.2351 31.685 32.6083 31.585C33.2352 31.4169 33.7955 31.4604 34.4429 31.2932C34.7347 31.2098 35.0265 31.1262 35.3186 31.043C35.3186 30.9873 35.3186 30.9319 35.3186 30.8762C34.9912 30.5403 34.7579 30.096 34.4011 29.7921C33.4674 28.997 32.4484 28.2027 31.399 27.5403C30.817 27.173 30.0977 26.9343 29.481 26.623C29.2735 26.5183 28.909 26.4638 28.7719 26.2893C28.448 25.8763 28.2715 25.3527 28.0217 24.8716C27.4982 23.8637 26.9842 22.763 26.5205 21.7026C26.2042 20.9795 25.9976 20.2664 25.6032 19.6177C23.7099 16.5049 21.672 14.6261 18.5149 12.7793C17.8432 12.3866 17.0344 12.2315 16.1797 12.0289C15.7213 12.0011 15.2624 11.9732 14.8038 11.9454C14.5238 11.8284 14.2326 11.4859 13.9699 11.3199C12.9241 10.6592 10.2415 9.22212 9.46686 11.1115C8.97775 12.3041 10.1978 13.4678 10.6342 14.0721C10.9405 14.496 11.3326 14.9713 11.5515 15.448C11.6954 15.7613 11.7203 16.0755 11.8435 16.4071C12.1467 17.2238 12.4103 18.1124 12.8024 18.8672C13.0006 19.2491 13.2191 19.6515 13.4696 19.993C13.6233 20.2026 13.8865 20.2949 13.9281 20.6185C13.6706 20.9788 13.656 21.5381 13.5113 21.9945C12.8596 24.0493 13.1054 26.6034 14.0533 28.1241C14.3442 28.5909 15.0293 29.5922 15.9713 29.2082C16.7953 28.8725 16.6112 27.8325 16.847 26.9148C16.9003 26.7068 16.8676 26.5538 16.972 26.4145C16.972 26.4283 16.972 26.4423 16.972 26.4562C17.2222 26.9566 17.4724 27.4569 17.7227 27.9571C18.2781 28.8517 19.2639 29.7867 20.0993 30.4175C20.5325 30.7446 20.8736 31.3103 21.4336 31.5016C21.4336 31.4877 21.4336 31.474 21.4336 31.4598C21.4195 31.4598 21.4058 31.4598 21.3918 31.4598C21.2833 31.2906 21.1136 31.2206 20.975 31.0846C20.6486 30.7647 20.2858 30.367 20.0159 30.0005C19.2561 28.969 18.5846 27.8399 17.9729 26.6647C17.6807 26.1036 17.4267 25.4844 17.1804 24.9134C17.0855 24.6931 17.0866 24.3602 16.8888 24.2462C16.6191 24.6647 16.2217 25.003 16.0131 25.4971C15.6795 26.287 15.6364 27.2503 15.5128 28.2491C15.4397 28.2753 15.4722 28.2573 15.4292 28.2907C14.8486 28.1507 14.6444 27.5528 14.4287 27.04C13.8828 25.7429 13.7814 23.6544 14.2617 22.1614C14.386 21.7752 14.9478 20.5585 14.7204 20.2017C14.6119 19.8456 14.2537 19.6397 14.0533 19.3675C13.8053 19.0312 13.5577 18.5884 13.3861 18.2C12.9393 17.1887 12.7307 16.0534 12.2603 15.0312C12.0356 14.5424 11.6553 14.0479 11.343 13.6135C10.9973 13.1322 10.6102 12.7777 10.3424 12.1956C10.2471 11.9888 10.1176 11.6577 10.2589 11.4451C10.3039 11.3016 10.3672 11.2417 10.5092 11.1949C10.751 11.0084 11.4246 11.257 11.6765 11.3617C12.3452 11.6394 12.9033 11.9039 13.4696 12.279C13.7416 12.4594 14.0165 12.808 14.3451 12.9045C14.4702 12.9045 14.5954 12.9045 14.7204 12.9045C15.3074 13.0395 15.965 12.9464 16.5134 13.113C17.4827 13.4076 18.3513 13.8658 19.1402 14.3639C21.5436 15.8814 23.5086 18.0416 24.8527 20.6185C25.069 21.0334 25.1626 21.4294 25.353 21.8695C25.7373 22.757 26.2214 23.6702 26.6037 24.538C26.9853 25.4039 27.3572 26.2777 27.8965 26.9983C28.1801 27.3771 29.2752 27.5802 29.7728 27.7905C30.1217 27.938 30.6933 28.0916 31.0238 28.2907C31.655 28.6716 32.2665 29.1248 32.8585 29.5418C33.1544 29.7503 34.0639 30.2074 34.1093 30.5842Z" fill="#00618A"/>
<path fill-rule="evenodd" clip-rule="evenodd" d="M15.471 14.6975C15.1653 14.6919 14.9491 14.7309 14.7204 14.7808C14.7204 14.7947 14.7204 14.8087 14.7204 14.8225C14.7343 14.8225 14.7482 14.8225 14.7622 14.8225C14.908 15.1222 15.1655 15.315 15.3458 15.5732C15.4848 15.8651 15.6237 16.1569 15.7629 16.4486C15.7766 16.4348 15.7907 16.4209 15.8045 16.4071C16.0627 16.2251 16.181 15.934 16.1797 15.4897C16.0763 15.3809 16.061 15.2443 15.9713 15.1144C15.852 14.9413 15.6213 14.843 15.471 14.6975Z" fill="#00618A"/>
</svg>
