<svg width="48" height="48" viewBox="0 0 48 48" fill="none" xmlns="http://www.w3.org/2000/svg">
<path d="M24 47.9109C23.3398 47.9109 22.7235 47.7349 22.1513 47.4268L16.2973 43.9495C15.417 43.4654 15.8571 43.2893 16.1212 43.2013C17.3096 42.8051 17.5297 42.7171 18.7621 42.0129C18.8942 41.9248 19.0703 41.9688 19.2023 42.0569L23.6919 44.7418C23.8679 44.8298 24.088 44.8298 24.2201 44.7418L41.7823 34.5742C41.9583 34.4862 42.0464 34.3101 42.0464 34.0901V13.7989C42.0464 13.5788 41.9583 13.4027 41.7823 13.3147L24.2201 3.19113C24.044 3.1031 23.8239 3.1031 23.6919 3.19113L6.12968 13.3147C5.95361 13.4027 5.86558 13.6228 5.86558 13.7989V34.0901C5.86558 34.2661 5.95361 34.4862 6.12968 34.5742L10.9274 37.3472C13.5243 38.6677 15.1529 37.1271 15.1529 35.5866V15.5595C15.1529 15.2954 15.3729 15.0313 15.6811 15.0313H17.9258C18.1899 15.0313 18.454 15.2514 18.454 15.5595V35.5866C18.454 39.0638 16.5614 41.0885 13.2602 41.0885C12.2478 41.0885 11.4556 41.0885 9.21077 39.9881L4.58913 37.3472C3.44473 36.687 2.74048 35.4545 2.74048 34.1341V13.8429C2.74048 12.5224 3.44473 11.29 4.58913 10.6298L22.1513 0.462163C23.2517 -0.154054 24.7483 -0.154054 25.8486 0.462163L43.4109 10.6298C44.5553 11.29 45.2595 12.5224 45.2595 13.8429V34.1341C45.2595 35.4545 44.5553 36.687 43.4109 37.3472L25.8486 47.5148C25.2764 47.7789 24.6162 47.9109 24 47.9109ZM29.4139 33.958C21.7112 33.958 20.1266 30.4368 20.1266 27.4437C20.1266 27.1796 20.3467 26.9155 20.6548 26.9155H22.9436C23.2077 26.9155 23.4278 27.0916 23.4278 27.3557C23.7799 29.6885 24.7923 30.8329 29.4579 30.8329C33.1552 30.8329 34.7398 29.9966 34.7398 28.0159C34.7398 26.8715 34.2996 26.0352 28.5336 25.463C23.7359 24.9788 20.7428 23.9225 20.7428 20.0931C20.7428 16.5278 23.7359 14.4151 28.7537 14.4151C34.3877 14.4151 37.1606 16.3518 37.5128 20.5773C37.5128 20.7093 37.4688 20.8414 37.3807 20.9734C37.2927 21.0614 37.1606 21.1495 37.0286 21.1495H34.7398C34.5197 21.1495 34.2996 20.9734 34.2556 20.7533C33.7274 18.3325 32.363 17.5402 28.7537 17.5402C24.7042 17.5402 24.2201 18.9487 24.2201 20.0051C24.2201 21.2815 24.7923 21.6777 30.2502 22.3819C35.6641 23.0862 38.217 24.0985 38.217 27.8839C38.173 31.7572 35.0039 33.958 29.4139 33.958Z" fill="#539E43"/>
</svg>
